<svg xmlns="http://www.w3.org/2000/svg" width="1920" height="1080"><path d="M323,-223L516,-197L687,-185Z" fill="#d96d45" stroke="#d96d45" stroke-width="1.51"/><path d="M648,1284L175,1293L1128,1288Z" fill="#91a25c" stroke="#91a25c" stroke-width="1.51"/><path d="M1030,1277L805,1280L1128,1288Z" fill="#8cb778" stroke="#8cb778" stroke-width="1.51"/><path d="M805,1280L648,1284L1128,1288Z" fill="#8fb271" stroke="#8fb271" stroke-width="1.51"/><path d="M687,-185L1006,-170L1249,-214Z" fill="#e1956c" stroke="#e1956c" stroke-width="1.51"/><path d="M323,-223L687,-185L1249,-214Z" fill="#dc8658" stroke="#dc8658" stroke-width="1.51"/><path d="M323,-223L1249,-214L1466,-217Z" fill="#da9168" stroke="#da9168" stroke-width="1.51"/><path d="M1240,1286L1128,1288L1777,1292Z" fill="#67a656" stroke="#67a656" stroke-width="1.51"/><path d="M1641,1262L1412,1264L1777,1292Z" fill="#4a9d51" stroke="#4a9d51" stroke-width="1.51"/><path d="M1412,1264L1240,1286L1777,1292Z" fill="#5da353" stroke="#5da353" stroke-width="1.51"/><path d="M1466,-217L1724,-166L1897,-173Z" fill="#9f7b42" stroke="#9f7b42" stroke-width="1.51"/><path d="M1466,-217L1897,-173L2018,-195Z" fill="#94733f" stroke="#94733f" stroke-width="1.51"/><path d="M1830,1272L1777,1292L2068,1295Z" fill="#188747" stroke="#188747" stroke-width="1.51"/><path d="M2058,1123L2008,1218L2068,1295Z" fill="#0f8445" stroke="#0f8445" stroke-width="1.51"/><path d="M2019,-41L2021,73L2076,96Z" fill="#987b40" stroke="#987b40" stroke-width="1.51"/><path d="M2019,-41L2076,96L2103,-75Z" fill="#93713a" stroke="#93713a" stroke-width="1.51"/><path d="M2106,867L2012,893L2118,1059Z" fill="#4fa052" stroke="#4fa052" stroke-width="1.51"/><path d="M2012,893L1994,1024L2118,1059Z" fill="#449f53" stroke="#449f53" stroke-width="1.51"/><path d="M2058,1123L2068,1295L2118,1059Z" fill="#148848" stroke="#148848" stroke-width="1.51"/><path d="M2072,624L2005,761L2120,808Z" fill="#78b161" stroke="#78b161" stroke-width="1.51"/><path d="M2106,867L2118,1059L2120,808Z" fill="#549e51" stroke="#549e51" stroke-width="1.51"/><path d="M2115,441L2021,530L2134,583Z" fill="#8fb878" stroke="#8fb878" stroke-width="1.51"/><path d="M2072,624L2120,808L2134,583Z" fill="#7eb166" stroke="#7eb166" stroke-width="1.51"/><path d="M2120,808L2118,1059L2134,583Z" fill="#66a555" stroke="#66a555" stroke-width="1.51"/><path d="M2076,96L1959,158L2141,196Z" fill="#988b49" stroke="#988b49" stroke-width="1.51"/><path d="M1959,158L2016,308L2141,196Z" fill="#999951" stroke="#999951" stroke-width="1.51"/><path d="M2016,308L2115,325L2141,196Z" fill="#959c55" stroke="#959c55" stroke-width="1.51"/><path d="M2103,-75L2076,96L2141,196Z" fill="#95783f" stroke="#95783f" stroke-width="1.51"/><path d="M2120,-155L2103,-75L2141,196Z" fill="#8f6b37" stroke="#8f6b37" stroke-width="1.51"/><path d="M2115,441L2134,583L2141,196Z" fill="#8ea965" stroke="#8ea965" stroke-width="1.51"/><path d="M2115,325L2115,441L2141,196Z" fill="#919e59" stroke="#919e59" stroke-width="1.51"/><path d="M1998,435L2115,441L2115,325Z" fill="#92ae66" stroke="#92ae66" stroke-width="1.51"/><path d="M2016,308L1998,435L2115,325Z" fill="#95ac62" stroke="#95ac62" stroke-width="1.51"/><path d="M2021,530L2072,624L2134,583Z" fill="#8bb877" stroke="#8bb877" stroke-width="1.51"/><path d="M1998,435L2021,530L2115,441Z" fill="#93b873" stroke="#93b873" stroke-width="1.51"/><path d="M2005,761L2106,867L2120,808Z" fill="#69aa58" stroke="#69aa58" stroke-width="1.51"/><path d="M2018,-195L2103,-75L2120,-155Z" fill="#846032" stroke="#846032" stroke-width="1.51"/><path d="M2005,761L2012,893L2106,867Z" fill="#66ac57" stroke="#66ac57" stroke-width="1.51"/><path d="M1994,1024L2058,1123L2118,1059Z" fill="#32954f" stroke="#32954f" stroke-width="1.51"/><path d="M2018,-195L2019,-41L2103,-75Z" fill="#8d6634" stroke="#8d6634" stroke-width="1.51"/><path d="M1983,1149L2008,1218L2058,1123Z" fill="#168e4b" stroke="#168e4b" stroke-width="1.51"/><path d="M2021,530L1947,645L2072,624Z" fill="#8cbe77" stroke="#8cbe77" stroke-width="1.51"/><path d="M1947,645L2005,761L2072,624Z" fill="#83bb6b" stroke="#83bb6b" stroke-width="1.51"/><path d="M2021,73L1959,158L2076,96Z" fill="#9c8748" stroke="#9c8748" stroke-width="1.51"/><path d="M2008,1218L1830,1272L2068,1295Z" fill="#0f8445" stroke="#0f8445" stroke-width="1.51"/><path d="M1994,1024L1983,1149L2058,1123Z" fill="#2b964f" stroke="#2b964f" stroke-width="1.51"/><path d="M2018,-195L1897,-173L2019,-41Z" fill="#8c6a37" stroke="#8c6a37" stroke-width="1.51"/><path d="M1850,898L1879,1035L1994,1024Z" fill="#4ead5a" stroke="#4ead5a" stroke-width="1.51"/><path d="M1850,898L1994,1024L2012,893Z" fill="#56ad59" stroke="#56ad59" stroke-width="1.51"/><path d="M2005,761L1854,770L2012,893Z" fill="#71b75f" stroke="#71b75f" stroke-width="1.51"/><path d="M1854,770L1850,898L2012,893Z" fill="#6cb95d" stroke="#6cb95d" stroke-width="1.51"/><path d="M1820,283L1998,435L2016,308Z" fill="#9cb566" stroke="#9cb566" stroke-width="1.51"/><path d="M1959,158L1820,283L2016,308Z" fill="#a0a95b" stroke="#a0a95b" stroke-width="1.51"/><path d="M1897,-173L1845,-77L2019,-41Z" fill="#97743a" stroke="#97743a" stroke-width="1.51"/><path d="M1998,435L1847,510L2021,530Z" fill="#98c37c" stroke="#98c37c" stroke-width="1.51"/><path d="M1847,510L1947,645L2021,530Z" fill="#95c981" stroke="#95c981" stroke-width="1.51"/><path d="M2019,-41L1881,29L2021,73Z" fill="#9b7e41" stroke="#9b7e41" stroke-width="1.51"/><path d="M1881,29L1959,158L2021,73Z" fill="#a08a48" stroke="#a08a48" stroke-width="1.51"/><path d="M1879,1035L1983,1149L1994,1024Z" fill="#369f54" stroke="#369f54" stroke-width="1.51"/><path d="M1845,-77L1881,29L2019,-41Z" fill="#9c7d3f" stroke="#9c7d3f" stroke-width="1.51"/><path d="M1879,1035L1890,1143L1983,1149Z" fill="#2d9e53" stroke="#2d9e53" stroke-width="1.51"/><path d="M1820,283L1821,458L1998,435Z" fill="#a0c170" stroke="#a0c170" stroke-width="1.51"/><path d="M1847,510L1902,645L1947,645Z" fill="#94ca7d" stroke="#94ca7d" stroke-width="1.51"/><path d="M1947,645L1854,770L2005,761Z" fill="#80c069" stroke="#80c069" stroke-width="1.51"/><path d="M1983,1149L1890,1143L2008,1218Z" fill="#18934d" stroke="#18934d" stroke-width="1.51"/><path d="M1890,1143L1830,1272L2008,1218Z" fill="#19914c" stroke="#19914c" stroke-width="1.51"/><path d="M1469,1253L1412,1264L1641,1262Z" fill="#5aa554" stroke="#5aa554" stroke-width="1.51"/><path d="M1902,645L1854,770L1947,645Z" fill="#89c56f" stroke="#89c56f" stroke-width="1.51"/><path d="M1815,201L1820,283L1959,158Z" fill="#a7a859" stroke="#a7a859" stroke-width="1.51"/><path d="M1821,458L1847,510L1998,435Z" fill="#9ec87b" stroke="#9ec87b" stroke-width="1.51"/><path d="M1881,29L1815,201L1959,158Z" fill="#a69850" stroke="#a69850" stroke-width="1.51"/><path d="M1466,-217L1629,-155L1724,-166Z" fill="#aa8044" stroke="#aa8044" stroke-width="1.51"/><path d="M1850,898L1774,992L1879,1035Z" fill="#5ab45e" stroke="#5ab45e" stroke-width="1.51"/><path d="M1740,94L1815,201L1881,29Z" fill="#ae9a50" stroke="#ae9a50" stroke-width="1.51"/><path d="M1879,1035L1770,1142L1890,1143Z" fill="#3aa456" stroke="#3aa456" stroke-width="1.51"/><path d="M1770,1142L1830,1272L1890,1143Z" fill="#2c9b51" stroke="#2c9b51" stroke-width="1.51"/><path d="M1847,510L1751,584L1902,645Z" fill="#9ed083" stroke="#9ed083" stroke-width="1.51"/><path d="M1749,700L1854,770L1902,645Z" fill="#8eca6f" stroke="#8eca6f" stroke-width="1.51"/><path d="M1751,584L1749,700L1902,645Z" fill="#9acf7a" stroke="#9acf7a" stroke-width="1.51"/><path d="M1845,-77L1780,-41L1881,29Z" fill="#a48342" stroke="#a48342" stroke-width="1.51"/><path d="M1724,-166L1845,-77L1897,-173Z" fill="#9a763e" stroke="#9a763e" stroke-width="1.51"/><path d="M1820,283L1712,325L1821,458Z" fill="#acc46f" stroke="#acc46f" stroke-width="1.51"/><path d="M1712,325L1701,388L1821,458Z" fill="#afcb75" stroke="#afcb75" stroke-width="1.51"/><path d="M1774,992L1770,1142L1879,1035Z" fill="#4cad5b" stroke="#4cad5b" stroke-width="1.51"/><path d="M1780,-41L1740,94L1881,29Z" fill="#ac8d49" stroke="#ac8d49" stroke-width="1.51"/><path d="M1714,877L1850,898L1854,770Z" fill="#79c162" stroke="#79c162" stroke-width="1.51"/><path d="M1770,1142L1777,1292L1830,1272Z" fill="#2f974f" stroke="#2f974f" stroke-width="1.51"/><path d="M1724,-166L1780,-41L1845,-77Z" fill="#a57e3f" stroke="#a57e3f" stroke-width="1.51"/><path d="M1749,700L1704,766L1854,770Z" fill="#8fcc6e" stroke="#8fcc6e" stroke-width="1.51"/><path d="M1704,766L1714,877L1854,770Z" fill="#87c868" stroke="#87c868" stroke-width="1.51"/><path d="M1714,877L1774,992L1850,898Z" fill="#6dbd61" stroke="#6dbd61" stroke-width="1.51"/><path d="M1821,458L1751,584L1847,510Z" fill="#a6d287" stroke="#a6d287" stroke-width="1.51"/><path d="M264,1279L175,1293L648,1284Z" fill="#958547" stroke="#958547" stroke-width="1.51"/><path d="M1740,94L1736,209L1815,201Z" fill="#b2a758" stroke="#b2a758" stroke-width="1.51"/><path d="M1815,201L1736,209L1820,283Z" fill="#aeb15e" stroke="#aeb15e" stroke-width="1.51"/><path d="M1658,433L1751,584L1821,458Z" fill="#aed586" stroke="#aed586" stroke-width="1.51"/><path d="M1701,388L1658,433L1821,458Z" fill="#b1d07b" stroke="#b1d07b" stroke-width="1.51"/><path d="M1736,209L1712,325L1820,283Z" fill="#b1b965" stroke="#b1b965" stroke-width="1.51"/><path d="M1658,433L1611,502L1751,584Z" fill="#b6dc8b" stroke="#b6dc8b" stroke-width="1.51"/><path d="M1714,877L1659,884L1774,992Z" fill="#75c264" stroke="#75c264" stroke-width="1.51"/><path d="M1629,1110L1770,1142L1774,992Z" fill="#52b05c" stroke="#52b05c" stroke-width="1.51"/><path d="M1590,996L1629,1110L1774,992Z" fill="#64bb61" stroke="#64bb61" stroke-width="1.51"/><path d="M1770,1142L1641,1262L1777,1292Z" fill="#3a9c52" stroke="#3a9c52" stroke-width="1.51"/><path d="M1724,-166L1618,-53L1780,-41Z" fill="#ae8442" stroke="#ae8442" stroke-width="1.51"/><path d="M1618,-53L1643,18L1780,-41Z" fill="#b58e49" stroke="#b58e49" stroke-width="1.51"/><path d="M1643,18L1740,94L1780,-41Z" fill="#b4934c" stroke="#b4934c" stroke-width="1.51"/><path d="M1629,1110L1641,1262L1770,1142Z" fill="#46a959" stroke="#46a959" stroke-width="1.51"/><path d="M1622,643L1749,700L1751,584Z" fill="#a5d77e" stroke="#a5d77e" stroke-width="1.51"/><path d="M1659,884L1590,996L1774,992Z" fill="#72c264" stroke="#72c264" stroke-width="1.51"/><path d="M1629,-155L1618,-53L1724,-166Z" fill="#ad8343" stroke="#ad8343" stroke-width="1.51"/><path d="M1612,157L1736,209L1740,94Z" fill="#baaa5a" stroke="#baaa5a" stroke-width="1.51"/><path d="M1611,502L1622,643L1751,584Z" fill="#b2dd8b" stroke="#b2dd8b" stroke-width="1.51"/><path d="M1622,643L1704,766L1749,700Z" fill="#9fd576" stroke="#9fd576" stroke-width="1.51"/><path d="M1704,766L1659,884L1714,877Z" fill="#87cb67" stroke="#87cb67" stroke-width="1.51"/><path d="M1596,337L1712,325L1736,209Z" fill="#b9c26a" stroke="#b9c26a" stroke-width="1.51"/><path d="M1612,157L1596,337L1736,209Z" fill="#bebb63" stroke="#bebb63" stroke-width="1.51"/><path d="M1643,18L1612,157L1740,94Z" fill="#bda054" stroke="#bda054" stroke-width="1.51"/><path d="M1622,643L1594,758L1704,766Z" fill="#a2d774" stroke="#a2d774" stroke-width="1.51"/><path d="M1594,758L1659,884L1704,766Z" fill="#93d06c" stroke="#93d06c" stroke-width="1.51"/><path d="M1596,337L1701,388L1712,325Z" fill="#b9cb72" stroke="#b9cb72" stroke-width="1.51"/><path d="M1596,337L1658,433L1701,388Z" fill="#bad178" stroke="#bad178" stroke-width="1.51"/><path d="M1507,819L1536,898L1594,758Z" fill="#9dd56b" stroke="#9dd56b" stroke-width="1.51"/><path d="M1533,297L1596,337L1612,157Z" fill="#c5c468" stroke="#c5c468" stroke-width="1.51"/><path d="M1611,502L1531,566L1622,643Z" fill="#bde28d" stroke="#bde28d" stroke-width="1.51"/><path d="M1629,1110L1520,1103L1641,1262Z" fill="#55b05b" stroke="#55b05b" stroke-width="1.51"/><path d="M1520,1103L1469,1253L1641,1262Z" fill="#59ac58" stroke="#59ac58" stroke-width="1.51"/><path d="M1502,148L1612,157L1643,18Z" fill="#c6a857" stroke="#c6a857" stroke-width="1.51"/><path d="M1594,758L1536,898L1659,884Z" fill="#93d168" stroke="#93d168" stroke-width="1.51"/><path d="M1536,898L1590,996L1659,884Z" fill="#84c967" stroke="#84c967" stroke-width="1.51"/><path d="M1596,337L1611,502L1658,433Z" fill="#bed77e" stroke="#bed77e" stroke-width="1.51"/><path d="M687,-185L893,-160L1006,-170Z" fill="#e49064" stroke="#e49064" stroke-width="1.51"/><path d="M1596,337L1467,389L1611,502Z" fill="#c6d97d" stroke="#c6d97d" stroke-width="1.51"/><path d="M1590,996L1543,1010L1629,1110Z" fill="#6ebf62" stroke="#6ebf62" stroke-width="1.51"/><path d="M1543,1010L1520,1103L1629,1110Z" fill="#6abc60" stroke="#6abc60" stroke-width="1.51"/><path d="M1461,90L1502,148L1643,18Z" fill="#cca655" stroke="#cca655" stroke-width="1.51"/><path d="M1618,-53L1465,-54L1643,18Z" fill="#c09349" stroke="#c09349" stroke-width="1.51"/><path d="M1465,-54L1461,90L1643,18Z" fill="#c99c4f" stroke="#c99c4f" stroke-width="1.51"/><path d="M1502,148L1533,297L1612,157Z" fill="#caba61" stroke="#caba61" stroke-width="1.51"/><path d="M1480,662L1594,758L1622,643Z" fill="#b1dd7a" stroke="#b1dd7a" stroke-width="1.51"/><path d="M1465,-54L1618,-53L1629,-155Z" fill="#bc8b44" stroke="#bc8b44" stroke-width="1.51"/><path d="M1466,-217L1465,-54L1629,-155Z" fill="#b98845" stroke="#b98845" stroke-width="1.51"/><path d="M1531,566L1480,662L1622,643Z" fill="#bce285" stroke="#bce285" stroke-width="1.51"/><path d="M1467,389L1531,566L1611,502Z" fill="#c7e18a" stroke="#c7e18a" stroke-width="1.51"/><path d="M1422,-158L1465,-54L1466,-217Z" fill="#c08b46" stroke="#c08b46" stroke-width="1.51"/><path d="M1467,389L1424,440L1531,566Z" fill="#cfe387" stroke="#cfe387" stroke-width="1.51"/><path d="M1536,898L1543,1010L1590,996Z" fill="#80c866" stroke="#80c866" stroke-width="1.51"/><path d="M1480,662L1507,819L1594,758Z" fill="#addc74" stroke="#addc74" stroke-width="1.51"/><path d="M1533,297L1467,389L1596,337Z" fill="#c9d173" stroke="#c9d173" stroke-width="1.51"/><path d="M1480,662L1412,773L1507,819Z" fill="#b3df74" stroke="#b3df74" stroke-width="1.51"/><path d="M1387,1141L1469,1253L1520,1103Z" fill="#68b75c" stroke="#68b75c" stroke-width="1.51"/><path d="M1502,148L1420,203L1533,297Z" fill="#d1c164" stroke="#d1c164" stroke-width="1.51"/><path d="M1536,898L1367,1014L1543,1010Z" fill="#88cc67" stroke="#88cc67" stroke-width="1.51"/><path d="M1367,1014L1520,1103L1543,1010Z" fill="#7cc564" stroke="#7cc564" stroke-width="1.51"/><path d="M1424,440L1366,580L1531,566Z" fill="#d3eb92" stroke="#d3eb92" stroke-width="1.51"/><path d="M1423,644L1480,662L1531,566Z" fill="#c4e686" stroke="#c4e686" stroke-width="1.51"/><path d="M1420,203L1386,302L1533,297Z" fill="#d5cb6a" stroke="#d5cb6a" stroke-width="1.51"/><path d="M1507,819L1364,860L1536,898Z" fill="#a1d769" stroke="#a1d769" stroke-width="1.51"/><path d="M1364,860L1367,1014L1536,898Z" fill="#9ad46a" stroke="#9ad46a" stroke-width="1.51"/><path d="M1386,302L1467,389L1533,297Z" fill="#d1d472" stroke="#d1d472" stroke-width="1.51"/><path d="M1366,580L1423,644L1531,566Z" fill="#cce98b" stroke="#cce98b" stroke-width="1.51"/><path d="M1367,1014L1387,1141L1520,1103Z" fill="#7bc262" stroke="#7bc262" stroke-width="1.51"/><path d="M1412,773L1364,860L1507,819Z" fill="#addc6e" stroke="#addc6e" stroke-width="1.51"/><path d="M1461,90L1420,203L1502,148Z" fill="#d4b55d" stroke="#d4b55d" stroke-width="1.51"/><path d="M1422,-158L1362,-70L1465,-54Z" fill="#cc9148" stroke="#cc9148" stroke-width="1.51"/><path d="M1349,71L1461,90L1465,-54Z" fill="#d4a353" stroke="#d4a353" stroke-width="1.51"/><path d="M1362,-70L1349,71L1465,-54Z" fill="#d49d50" stroke="#d49d50" stroke-width="1.51"/><path d="M1387,1141L1412,1264L1469,1253Z" fill="#69b059" stroke="#69b059" stroke-width="1.51"/><path d="M1423,644L1412,773L1480,662Z" fill="#c0e47b" stroke="#c0e47b" stroke-width="1.51"/><path d="M1349,71L1420,203L1461,90Z" fill="#d9b35c" stroke="#d9b35c" stroke-width="1.51"/><path d="M1249,-214L1422,-158L1466,-217Z" fill="#be884a" stroke="#be884a" stroke-width="1.51"/><path d="M1386,302L1424,440L1467,389Z" fill="#d5dd7a" stroke="#d5dd7a" stroke-width="1.51"/><path d="M-192,-170L-27,-185L83,-204Z" fill="#c12027" stroke="#c12027" stroke-width="1.51"/><path d="M1284,317L1255,387L1386,302Z" fill="#e2dc7d" stroke="#e2dc7d" stroke-width="1.51"/><path d="M1349,71L1236,141L1420,203Z" fill="#e1b963" stroke="#e1b963" stroke-width="1.51"/><path d="M1300,743L1412,773L1423,644Z" fill="#c2e67c" stroke="#c2e67c" stroke-width="1.51"/><path d="M1366,580L1300,743L1423,644Z" fill="#cdea87" stroke="#cdea87" stroke-width="1.51"/><path d="M1300,559L1366,580L1424,440Z" fill="#dbee98" stroke="#dbee98" stroke-width="1.51"/><path d="M1255,387L1300,559L1424,440Z" fill="#dfe990" stroke="#dfe990" stroke-width="1.51"/><path d="M1386,302L1255,387L1424,440Z" fill="#dce07f" stroke="#dce07f" stroke-width="1.51"/><path d="M1387,1141L1240,1286L1412,1264Z" fill="#70b25d" stroke="#70b25d" stroke-width="1.51"/><path d="M1284,317L1386,302L1420,203Z" fill="#ddd071" stroke="#ddd071" stroke-width="1.51"/><path d="M1249,-214L1362,-70L1422,-158Z" fill="#c98e4c" stroke="#c98e4c" stroke-width="1.51"/><path d="M1236,141L1284,317L1420,203Z" fill="#e3c96d" stroke="#e3c96d" stroke-width="1.51"/><path d="M1281,79L1236,141L1349,71Z" fill="#e5b363" stroke="#e5b363" stroke-width="1.51"/><path d="M1246,940L1271,995L1364,860Z" fill="#a6d972" stroke="#a6d972" stroke-width="1.51"/><path d="M1364,860L1271,995L1367,1014Z" fill="#9dd56f" stroke="#9dd56f" stroke-width="1.51"/><path d="M1300,743L1364,860L1412,773Z" fill="#b9e276" stroke="#b9e276" stroke-width="1.51"/><path d="M1281,79L1349,71L1362,-70Z" fill="#dda659" stroke="#dda659" stroke-width="1.51"/><path d="M1234,-58L1281,79L1362,-70Z" fill="#dea157" stroke="#dea157" stroke-width="1.51"/><path d="M1300,559L1234,659L1366,580Z" fill="#dbf094" stroke="#dbf094" stroke-width="1.51"/><path d="M1234,659L1300,743L1366,580Z" fill="#d3ed8a" stroke="#d3ed8a" stroke-width="1.51"/><path d="M1271,995L1242,1126L1367,1014Z" fill="#91cd6e" stroke="#91cd6e" stroke-width="1.51"/><path d="M1367,1014L1242,1126L1387,1141Z" fill="#84c668" stroke="#84c668" stroke-width="1.51"/><path d="M1242,1126L1240,1286L1387,1141Z" fill="#7abc65" stroke="#7abc65" stroke-width="1.51"/><path d="M1249,-214L1234,-58L1362,-70Z" fill="#d59451" stroke="#d59451" stroke-width="1.51"/><path d="M1300,743L1179,870L1364,860Z" fill="#bce378" stroke="#bce378" stroke-width="1.51"/><path d="M1179,870L1246,940L1364,860Z" fill="#b2de75" stroke="#b2de75" stroke-width="1.51"/><path d="M1172,-144L1234,-58L1249,-214Z" fill="#d79454" stroke="#d79454" stroke-width="1.51"/><path d="M1118,462L1172,572L1255,387Z" fill="#eef19c" stroke="#eef19c" stroke-width="1.51"/><path d="M1236,141L1132,186L1284,317Z" fill="#eccc73" stroke="#eccc73" stroke-width="1.51"/><path d="M1234,659L1161,817L1300,743Z" fill="#cfeb84" stroke="#cfeb84" stroke-width="1.51"/><path d="M1161,817L1179,870L1300,743Z" fill="#c5e77e" stroke="#c5e77e" stroke-width="1.51"/><path d="M1255,387L1172,572L1300,559Z" fill="#e8f29d" stroke="#e8f29d" stroke-width="1.51"/><path d="M1172,572L1234,659L1300,559Z" fill="#e2f399" stroke="#e2f399" stroke-width="1.51"/><path d="M1145,1146L1240,1286L1242,1126Z" fill="#83bf6a" stroke="#83bf6a" stroke-width="1.51"/><path d="M1169,979L1242,1126L1271,995Z" fill="#9ad273" stroke="#9ad273" stroke-width="1.51"/><path d="M1234,-58L1117,29L1281,79Z" fill="#e8a960" stroke="#e8a960" stroke-width="1.51"/><path d="M1111,328L1255,387L1284,317Z" fill="#ebe084" stroke="#ebe084" stroke-width="1.51"/><path d="M1132,186L1111,328L1284,317Z" fill="#f0d87f" stroke="#f0d87f" stroke-width="1.51"/><path d="M1117,29L1236,141L1281,79Z" fill="#edb366" stroke="#edb366" stroke-width="1.51"/><path d="M1246,940L1169,979L1271,995Z" fill="#a6d876" stroke="#a6d876" stroke-width="1.51"/><path d="M1113,658L1161,817L1234,659Z" fill="#d9ef8d" stroke="#d9ef8d" stroke-width="1.51"/><path d="M1145,1146L1128,1288L1240,1286Z" fill="#82b869" stroke="#82b869" stroke-width="1.51"/><path d="M1169,979L1145,1146L1242,1126Z" fill="#95ce73" stroke="#95ce73" stroke-width="1.51"/><path d="M1006,-170L1172,-144L1249,-214Z" fill="#d7925c" stroke="#d7925c" stroke-width="1.51"/><path d="M1111,328L1118,462L1255,387Z" fill="#efea90" stroke="#efea90" stroke-width="1.51"/><path d="M1179,870L1169,979L1246,940Z" fill="#b1dd79" stroke="#b1dd79" stroke-width="1.51"/><path d="M1100,-41L1117,29L1234,-58Z" fill="#eba562" stroke="#eba562" stroke-width="1.51"/><path d="M1117,29L1132,186L1236,141Z" fill="#f1bc6e" stroke="#f1bc6e" stroke-width="1.51"/><path d="M1172,572L1113,658L1234,659Z" fill="#e3f499" stroke="#e3f499" stroke-width="1.51"/><path d="M1172,-144L1100,-41L1234,-58Z" fill="#e59b5a" stroke="#e59b5a" stroke-width="1.51"/><path d="M1046,279L1111,328L1132,186Z" fill="#f6d886" stroke="#f6d886" stroke-width="1.51"/><path d="M1113,658L1005,761L1161,817Z" fill="#daef92" stroke="#daef92" stroke-width="1.51"/><path d="M1037,1023L1145,1146L1169,979Z" fill="#a1d47d" stroke="#a1d47d" stroke-width="1.51"/><path d="M1118,462L1063,512L1172,572Z" fill="#f3f8aa" stroke="#f3f8aa" stroke-width="1.51"/><path d="M1006,-170L1058,-99L1172,-144Z" fill="#e29762" stroke="#e29762" stroke-width="1.51"/><path d="M1058,-99L1100,-41L1172,-144Z" fill="#e79b60" stroke="#e79b60" stroke-width="1.51"/><path d="M1022,866L1169,979L1179,870Z" fill="#bbe282" stroke="#bbe282" stroke-width="1.51"/><path d="M1161,817L1022,866L1179,870Z" fill="#c6e783" stroke="#c6e783" stroke-width="1.51"/><path d="M1025,1150L1030,1277L1128,1288Z" fill="#8abc75" stroke="#8abc75" stroke-width="1.51"/><path d="M1117,29L1042,44L1132,186Z" fill="#f5b772" stroke="#f5b772" stroke-width="1.51"/><path d="M1025,1150L1128,1288L1145,1146Z" fill="#8bc275" stroke="#8bc275" stroke-width="1.51"/><path d="M1022,866L1037,1023L1169,979Z" fill="#b6df85" stroke="#b6df85" stroke-width="1.51"/><path d="M1063,512L1113,658L1172,572Z" fill="#eef8a7" stroke="#eef8a7" stroke-width="1.51"/><path d="M1063,512L1044,643L1113,658Z" fill="#eef8a9" stroke="#eef8a9" stroke-width="1.51"/><path d="M1042,44L1003,136L1132,186Z" fill="#f9bf7a" stroke="#f9bf7a" stroke-width="1.51"/><path d="M1037,1023L1025,1150L1145,1146Z" fill="#9bcf7e" stroke="#9bcf7e" stroke-width="1.51"/><path d="M1005,761L1022,866L1161,817Z" fill="#d1eb8e" stroke="#d1eb8e" stroke-width="1.51"/><path d="M1044,643L1005,761L1113,658Z" fill="#e6f59d" stroke="#e6f59d" stroke-width="1.51"/><path d="M1111,328L975,457L1118,462Z" fill="#f7ef9f" stroke="#f7ef9f" stroke-width="1.51"/><path d="M1003,136L1046,279L1132,186Z" fill="#f9ce81" stroke="#f9ce81" stroke-width="1.51"/><path d="M1046,279L975,457L1111,328Z" fill="#f9e898" stroke="#f9e898" stroke-width="1.51"/><path d="M1100,-41L1042,44L1117,29Z" fill="#f2ab6c" stroke="#f2ab6c" stroke-width="1.51"/><path d="M975,457L1063,512L1118,462Z" fill="#f8f6aa" stroke="#f8f6aa" stroke-width="1.51"/><path d="M1058,-99L1042,44L1100,-41Z" fill="#f0a569" stroke="#f0a569" stroke-width="1.51"/><path d="M939,1232L805,1280L1030,1277Z" fill="#90b979" stroke="#90b979" stroke-width="1.51"/><path d="M1025,1150L939,1232L1030,1277Z" fill="#91c17d" stroke="#91c17d" stroke-width="1.51"/><path d="M1022,866L937,912L1037,1023Z" fill="#c0e38e" stroke="#c0e38e" stroke-width="1.51"/><path d="M913,1052L1025,1150L1037,1023Z" fill="#a6d588" stroke="#a6d588" stroke-width="1.51"/><path d="M884,552L903,632L1044,643Z" fill="#f7fbb2" stroke="#f7fbb2" stroke-width="1.51"/><path d="M899,415L975,457L1046,279Z" fill="#feefa3" stroke="#feefa3" stroke-width="1.51"/><path d="M1003,136L943,178L1046,279Z" fill="#fed088" stroke="#fed088" stroke-width="1.51"/><path d="M860,-43L931,39L1058,-99Z" fill="#f8a773" stroke="#f8a773" stroke-width="1.51"/><path d="M931,39L1042,44L1058,-99Z" fill="#f7ab72" stroke="#f7ab72" stroke-width="1.51"/><path d="M884,552L1044,643L1063,512Z" fill="#f9fcb6" stroke="#f9fcb6" stroke-width="1.51"/><path d="M975,457L884,552L1063,512Z" fill="#fefbb8" stroke="#fefbb8" stroke-width="1.51"/><path d="M1006,-170L893,-160L1058,-99Z" fill="#e9996b" stroke="#e9996b" stroke-width="1.51"/><path d="M893,-160L860,-43L1058,-99Z" fill="#f29d6c" stroke="#f29d6c" stroke-width="1.51"/><path d="M1005,761L938,807L1022,866Z" fill="#d7ee96" stroke="#d7ee96" stroke-width="1.51"/><path d="M931,39L1003,136L1042,44Z" fill="#feb77c" stroke="#feb77c" stroke-width="1.51"/><path d="M903,632L1005,761L1044,643Z" fill="#ecf7a6" stroke="#ecf7a6" stroke-width="1.51"/><path d="M943,178L868,257L1046,279Z" fill="#ffd890" stroke="#ffd890" stroke-width="1.51"/><path d="M868,257L899,415L1046,279Z" fill="#ffe399" stroke="#ffe399" stroke-width="1.51"/><path d="M937,912L913,1052L1037,1023Z" fill="#b7df90" stroke="#b7df90" stroke-width="1.51"/><path d="M913,1052L908,1156L1025,1150Z" fill="#a1d188" stroke="#a1d188" stroke-width="1.51"/><path d="M908,1156L939,1232L1025,1150Z" fill="#98c984" stroke="#98c984" stroke-width="1.51"/><path d="M687,-185L792,-145L893,-160Z" fill="#e48d5d" stroke="#e48d5d" stroke-width="1.51"/><path d="M938,807L937,912L1022,866Z" fill="#d0eb94" stroke="#d0eb94" stroke-width="1.51"/><path d="M931,39L943,178L1003,136Z" fill="#ffc183" stroke="#ffc183" stroke-width="1.51"/><path d="M903,632L938,807L1005,761Z" fill="#e6f4a0" stroke="#e6f4a0" stroke-width="1.51"/><path d="M899,415L884,552L975,457Z" fill="#fff6af" stroke="#fff6af" stroke-width="1.51"/><path d="M391,1248L264,1279L648,1284Z" fill="#96904d" stroke="#96904d" stroke-width="1.51"/><path d="M750,643L736,774L903,632Z" fill="#eeed95" stroke="#eeed95" stroke-width="1.51"/><path d="M805,1003L913,1052L937,912Z" fill="#b9db89" stroke="#b9db89" stroke-width="1.51"/><path d="M903,632L736,774L938,807Z" fill="#e5ee96" stroke="#e5ee96" stroke-width="1.51"/><path d="M756,879L937,912L938,807Z" fill="#d1e58b" stroke="#d1e58b" stroke-width="1.51"/><path d="M820,220L868,257L943,178Z" fill="#ffcf86" stroke="#ffcf86" stroke-width="1.51"/><path d="M931,39L810,89L943,178Z" fill="#ffba7b" stroke="#ffba7b" stroke-width="1.51"/><path d="M810,89L820,220L943,178Z" fill="#ffc47e" stroke="#ffc47e" stroke-width="1.51"/><path d="M908,1156L805,1280L939,1232Z" fill="#95bd78" stroke="#95bd78" stroke-width="1.51"/><path d="M736,774L756,879L938,807Z" fill="#d9e588" stroke="#d9e588" stroke-width="1.51"/><path d="M756,879L805,1003L937,912Z" fill="#c5dd84" stroke="#c5dd84" stroke-width="1.51"/><path d="M868,257L812,260L899,415Z" fill="#ffdd90" stroke="#ffdd90" stroke-width="1.51"/><path d="M860,-43L810,89L931,39Z" fill="#fbab71" stroke="#fbab71" stroke-width="1.51"/><path d="M792,-145L860,-43L893,-160Z" fill="#ed9663" stroke="#ed9663" stroke-width="1.51"/><path d="M812,260L737,413L899,415Z" fill="#ffe292" stroke="#ffe292" stroke-width="1.51"/><path d="M771,558L884,552L899,415Z" fill="#fff5ad" stroke="#fff5ad" stroke-width="1.51"/><path d="M737,413L771,558L899,415Z" fill="#ffeda1" stroke="#ffeda1" stroke-width="1.51"/><path d="M762,1127L805,1280L908,1156Z" fill="#99c076" stroke="#99c076" stroke-width="1.51"/><path d="M762,1127L908,1156L913,1052Z" fill="#a3cc7e" stroke="#a3cc7e" stroke-width="1.51"/><path d="M805,1003L762,1127L913,1052Z" fill="#add07f" stroke="#add07f" stroke-width="1.51"/><path d="M884,552L771,558L903,632Z" fill="#faf6ac" stroke="#faf6ac" stroke-width="1.51"/><path d="M771,558L750,643L903,632Z" fill="#f7f2a2" stroke="#f7f2a2" stroke-width="1.51"/><path d="M754,-24L810,89L860,-43Z" fill="#f9a468" stroke="#f9a468" stroke-width="1.51"/><path d="M792,-145L754,-24L860,-43Z" fill="#f39860" stroke="#f39860" stroke-width="1.51"/><path d="M820,220L812,260L868,257Z" fill="#ffd284" stroke="#ffd284" stroke-width="1.51"/><path d="M737,413L697,532L771,558Z" fill="#ffeca0" stroke="#ffeca0" stroke-width="1.51"/><path d="M762,1127L648,1284L805,1280Z" fill="#95b369" stroke="#95b369" stroke-width="1.51"/><path d="M756,879L704,891L805,1003Z" fill="#c6d97d" stroke="#c6d97d" stroke-width="1.51"/><path d="M754,-24L702,25L810,89Z" fill="#f9a465" stroke="#f9a465" stroke-width="1.51"/><path d="M678,300L737,413L812,260Z" fill="#fed885" stroke="#fed885" stroke-width="1.51"/><path d="M689,147L812,260L820,220Z" fill="#ffc77a" stroke="#ffc77a" stroke-width="1.51"/><path d="M810,89L689,147L820,220Z" fill="#febc73" stroke="#febc73" stroke-width="1.51"/><path d="M627,1046L762,1127L805,1003Z" fill="#aeca74" stroke="#aeca74" stroke-width="1.51"/><path d="M689,147L678,300L812,260Z" fill="#fec977" stroke="#fec977" stroke-width="1.51"/><path d="M702,25L689,147L810,89Z" fill="#fdad69" stroke="#fdad69" stroke-width="1.51"/><path d="M704,891L627,1046L805,1003Z" fill="#bcd177" stroke="#bcd177" stroke-width="1.51"/><path d="M697,648L736,774L750,643Z" fill="#ede98d" stroke="#ede98d" stroke-width="1.51"/><path d="M687,-185L618,-103L754,-24Z" fill="#ec8a53" stroke="#ec8a53" stroke-width="1.51"/><path d="M687,-185L754,-24L792,-145Z" fill="#eb8e58" stroke="#eb8e58" stroke-width="1.51"/><path d="M697,648L665,738L736,774Z" fill="#e8e486" stroke="#e8e486" stroke-width="1.51"/><path d="M656,463L697,532L737,413Z" fill="#ffe697" stroke="#ffe697" stroke-width="1.51"/><path d="M736,774L704,891L756,879Z" fill="#d4df7d" stroke="#d4df7d" stroke-width="1.51"/><path d="M624,1103L648,1284L762,1127Z" fill="#9cb869" stroke="#9cb869" stroke-width="1.51"/><path d="M627,1046L624,1103L762,1127Z" fill="#a9c16d" stroke="#a9c16d" stroke-width="1.51"/><path d="M697,648L750,643L771,558Z" fill="#f6ed9a" stroke="#f6ed9a" stroke-width="1.51"/><path d="M697,532L697,648L771,558Z" fill="#fbee9e" stroke="#fbee9e" stroke-width="1.51"/><path d="M533,1236L391,1248L648,1284Z" fill="#979b54" stroke="#979b54" stroke-width="1.51"/><path d="M618,-103L702,25L754,-24Z" fill="#f49559" stroke="#f49559" stroke-width="1.51"/><path d="M665,738L704,891L736,774Z" fill="#dcdf7e" stroke="#dcdf7e" stroke-width="1.51"/><path d="M678,300L656,463L737,413Z" fill="#fede8a" stroke="#fede8a" stroke-width="1.51"/><path d="M624,1103L533,1236L648,1284Z" fill="#9aaa5f" stroke="#9aaa5f" stroke-width="1.51"/><path d="M511,770L530,918L665,738Z" fill="#dcd171" stroke="#dcd171" stroke-width="1.51"/><path d="M527,327L656,463L678,300Z" fill="#fed27f" stroke="#fed27f" stroke-width="1.51"/><path d="M525,215L678,300L689,147Z" fill="#febd6d" stroke="#febd6d" stroke-width="1.51"/><path d="M581,565L697,648L697,532Z" fill="#fbe798" stroke="#fbe798" stroke-width="1.51"/><path d="M551,21L689,147L702,25Z" fill="#fba05f" stroke="#fba05f" stroke-width="1.51"/><path d="M618,-103L551,21L702,25Z" fill="#f49055" stroke="#f49055" stroke-width="1.51"/><path d="M665,738L530,918L704,891Z" fill="#d5d573" stroke="#d5d573" stroke-width="1.51"/><path d="M530,918L627,1046L704,891Z" fill="#c2cb6f" stroke="#c2cb6f" stroke-width="1.51"/><path d="M527,327L524,435L656,463Z" fill="#ffd381" stroke="#ffd381" stroke-width="1.51"/><path d="M538,687L665,738L697,648Z" fill="#eddf84" stroke="#eddf84" stroke-width="1.51"/><path d="M581,565L538,687L697,648Z" fill="#f5df8b" stroke="#f5df8b" stroke-width="1.51"/><path d="M656,463L581,565L697,532Z" fill="#ffe59b" stroke="#ffe59b" stroke-width="1.51"/><path d="M551,21L525,215L689,147Z" fill="#fca660" stroke="#fca660" stroke-width="1.51"/><path d="M516,-197L618,-103L687,-185Z" fill="#e17c4d" stroke="#e17c4d" stroke-width="1.51"/><path d="M525,215L527,327L678,300Z" fill="#fec170" stroke="#fec170" stroke-width="1.51"/><path d="M552,-89L551,21L618,-103Z" fill="#f0854d" stroke="#f0854d" stroke-width="1.51"/><path d="M530,918L510,994L627,1046Z" fill="#bdc269" stroke="#bdc269" stroke-width="1.51"/><path d="M538,687L511,770L665,738Z" fill="#e8d67a" stroke="#e8d67a" stroke-width="1.51"/><path d="M524,435L581,565L656,463Z" fill="#ffdc90" stroke="#ffdc90" stroke-width="1.51"/><path d="M508,1118L533,1236L624,1103Z" fill="#a1af5f" stroke="#a1af5f" stroke-width="1.51"/><path d="M323,-223L453,-182L516,-197Z" fill="#d86340" stroke="#d86340" stroke-width="1.51"/><path d="M516,-197L552,-89L618,-103Z" fill="#e67a49" stroke="#e67a49" stroke-width="1.51"/><path d="M508,1118L624,1103L627,1046Z" fill="#abb966" stroke="#abb966" stroke-width="1.51"/><path d="M510,994L508,1118L627,1046Z" fill="#b2ba65" stroke="#b2ba65" stroke-width="1.51"/><path d="M398,21L419,220L525,215Z" fill="#fb9b57" stroke="#fb9b57" stroke-width="1.51"/><path d="M398,21L525,215L551,21Z" fill="#fa9254" stroke="#fa9254" stroke-width="1.51"/><path d="M404,521L462,651L581,565Z" fill="#fcd589" stroke="#fcd589" stroke-width="1.51"/><path d="M524,435L445,451L581,565Z" fill="#ffd589" stroke="#ffd589" stroke-width="1.51"/><path d="M445,451L404,521L581,565Z" fill="#ffd38b" stroke="#ffd38b" stroke-width="1.51"/><path d="M462,651L538,687L581,565Z" fill="#f5d784" stroke="#f5d784" stroke-width="1.51"/><path d="M435,1036L508,1118L510,994Z" fill="#b4b460" stroke="#b4b460" stroke-width="1.51"/><path d="M525,215L442,305L527,327Z" fill="#feb969" stroke="#feb969" stroke-width="1.51"/><path d="M511,770L411,878L530,918Z" fill="#d5c566" stroke="#d5c566" stroke-width="1.51"/><path d="M432,-104L398,21L551,21Z" fill="#f17d47" stroke="#f17d47" stroke-width="1.51"/><path d="M516,-197L453,-182L552,-89Z" fill="#e17245" stroke="#e17245" stroke-width="1.51"/><path d="M453,-182L432,-104L552,-89Z" fill="#e57143" stroke="#e57143" stroke-width="1.51"/><path d="M432,-104L551,21L552,-89Z" fill="#ef7d48" stroke="#ef7d48" stroke-width="1.51"/><path d="M457,743L511,770L538,687Z" fill="#e8cf74" stroke="#e8cf74" stroke-width="1.51"/><path d="M445,451L524,435L527,327Z" fill="#fecb7b" stroke="#fecb7b" stroke-width="1.51"/><path d="M442,305L445,451L527,327Z" fill="#fec372" stroke="#fec372" stroke-width="1.51"/><path d="M508,1118L421,1126L533,1236Z" fill="#a1a859" stroke="#a1a859" stroke-width="1.51"/><path d="M421,1126L391,1248L533,1236Z" fill="#9d9d53" stroke="#9d9d53" stroke-width="1.51"/><path d="M462,651L457,743L538,687Z" fill="#eed077" stroke="#eed077" stroke-width="1.51"/><path d="M419,220L442,305L525,215Z" fill="#fdaf62" stroke="#fdaf62" stroke-width="1.51"/><path d="M411,878L510,994L530,918Z" fill="#c8bf64" stroke="#c8bf64" stroke-width="1.51"/><path d="M457,743L411,878L511,770Z" fill="#dfc76a" stroke="#dfc76a" stroke-width="1.51"/><path d="M398,21L331,71L419,220Z" fill="#f8884f" stroke="#f8884f" stroke-width="1.51"/><path d="M435,1036L421,1126L508,1118Z" fill="#adac5b" stroke="#adac5b" stroke-width="1.51"/><path d="M411,878L435,1036L510,994Z" fill="#c1b861" stroke="#c1b861" stroke-width="1.51"/><path d="M331,71L316,185L419,220Z" fill="#fa9052" stroke="#fa9052" stroke-width="1.51"/><path d="M411,878L330,874L435,1036Z" fill="#c8b45e" stroke="#c8b45e" stroke-width="1.51"/><path d="M442,305L291,428L445,451Z" fill="#febd72" stroke="#febd72" stroke-width="1.51"/><path d="M344,750L411,878L457,743Z" fill="#e0c067" stroke="#e0c067" stroke-width="1.51"/><path d="M285,675L344,750L462,651Z" fill="#eec16e" stroke="#eec16e" stroke-width="1.51"/><path d="M336,575L285,675L462,651Z" fill="#f5c378" stroke="#f5c378" stroke-width="1.51"/><path d="M404,521L336,575L462,651Z" fill="#fccb83" stroke="#fccb83" stroke-width="1.51"/><path d="M344,750L457,743L462,651Z" fill="#ebc770" stroke="#ebc770" stroke-width="1.51"/><path d="M330,874L295,1064L435,1036Z" fill="#beab5a" stroke="#beab5a" stroke-width="1.51"/><path d="M317,267L291,428L442,305Z" fill="#fdaf66" stroke="#fdaf66" stroke-width="1.51"/><path d="M323,-223L432,-104L453,-182Z" fill="#dc623e" stroke="#dc623e" stroke-width="1.51"/><path d="M344,750L330,874L411,878Z" fill="#d9b85f" stroke="#d9b85f" stroke-width="1.51"/><path d="M304,-21L398,21L432,-104Z" fill="#ee6f41" stroke="#ee6f41" stroke-width="1.51"/><path d="M419,220L317,267L442,305Z" fill="#fda960" stroke="#fda960" stroke-width="1.51"/><path d="M291,428L404,521L445,451Z" fill="#ffc37c" stroke="#ffc37c" stroke-width="1.51"/><path d="M295,1064L421,1126L435,1036Z" fill="#b0a658" stroke="#b0a658" stroke-width="1.51"/><path d="M279,1132L391,1248L421,1126Z" fill="#a19950" stroke="#a19950" stroke-width="1.51"/><path d="M323,-223L304,-21L432,-104Z" fill="#e4603b" stroke="#e4603b" stroke-width="1.51"/><path d="M295,1064L279,1132L421,1126Z" fill="#ab9c52" stroke="#ab9c52" stroke-width="1.51"/><path d="M316,185L317,267L419,220Z" fill="#fb9c58" stroke="#fb9c58" stroke-width="1.51"/><path d="M291,428L336,575L404,521Z" fill="#ffc281" stroke="#ffc281" stroke-width="1.51"/><path d="M279,1132L264,1279L391,1248Z" fill="#9c8b49" stroke="#9c8b49" stroke-width="1.51"/><path d="M304,-21L331,71L398,21Z" fill="#f27445" stroke="#f27445" stroke-width="1.51"/><path d="M189,-151L304,-21L323,-223Z" fill="#df5236" stroke="#df5236" stroke-width="1.51"/><path d="M214,1182L264,1279L279,1132Z" fill="#9f8746" stroke="#9f8746" stroke-width="1.51"/><path d="M189,-151L200,-46L304,-21Z" fill="#e65235" stroke="#e65235" stroke-width="1.51"/><path d="M175,332L291,428L317,267Z" fill="#fca562" stroke="#fca562" stroke-width="1.51"/><path d="M217,1039L295,1064L330,874Z" fill="#bea355" stroke="#bea355" stroke-width="1.51"/><path d="M204,874L217,1039L330,874Z" fill="#c9a455" stroke="#c9a455" stroke-width="1.51"/><path d="M219,41L316,185L331,71Z" fill="#f67a48" stroke="#f67a48" stroke-width="1.51"/><path d="M291,428L148,534L336,575Z" fill="#ffb77c" stroke="#ffb77c" stroke-width="1.51"/><path d="M285,675L157,739L344,750Z" fill="#eab365" stroke="#eab365" stroke-width="1.51"/><path d="M157,739L204,874L344,750Z" fill="#dfac5c" stroke="#dfac5c" stroke-width="1.51"/><path d="M204,874L330,874L344,750Z" fill="#d9b05b" stroke="#d9b05b" stroke-width="1.51"/><path d="M219,41L188,192L316,185Z" fill="#f77c49" stroke="#f77c49" stroke-width="1.51"/><path d="M83,-204L189,-151L323,-223Z" fill="#d14132" stroke="#d14132" stroke-width="1.51"/><path d="M304,-21L219,41L331,71Z" fill="#f16c41" stroke="#f16c41" stroke-width="1.51"/><path d="M148,534L285,675L336,575Z" fill="#fab877" stroke="#fab877" stroke-width="1.51"/><path d="M148,534L182,682L285,675Z" fill="#f4b16e" stroke="#f4b16e" stroke-width="1.51"/><path d="M316,185L188,192L317,267Z" fill="#fa9152" stroke="#fa9152" stroke-width="1.51"/><path d="M182,682L157,739L285,675Z" fill="#ebaf63" stroke="#ebaf63" stroke-width="1.51"/><path d="M175,332L179,412L291,428Z" fill="#fba665" stroke="#fba665" stroke-width="1.51"/><path d="M188,192L175,332L317,267Z" fill="#f99455" stroke="#f99455" stroke-width="1.51"/><path d="M179,412L148,534L291,428Z" fill="#fdad70" stroke="#fdad70" stroke-width="1.51"/><path d="M200,-46L219,41L304,-21Z" fill="#ed5f3b" stroke="#ed5f3b" stroke-width="1.51"/><path d="M217,1039L279,1132L295,1064Z" fill="#b0974f" stroke="#b0974f" stroke-width="1.51"/><path d="M217,1039L214,1182L279,1132Z" fill="#aa904c" stroke="#aa904c" stroke-width="1.51"/><path d="M214,1182L175,1293L264,1279Z" fill="#987b40" stroke="#987b40" stroke-width="1.51"/><path d="M65,297L175,332L188,192Z" fill="#f58d51" stroke="#f58d51" stroke-width="1.51"/><path d="M157,739L78,884L204,874Z" fill="#d5a152" stroke="#d5a152" stroke-width="1.51"/><path d="M83,1170L175,1293L214,1182Z" fill="#997c40" stroke="#997c40" stroke-width="1.51"/><path d="M204,874L78,884L217,1039Z" fill="#c59b4f" stroke="#c59b4f" stroke-width="1.51"/><path d="M78,884L44,1004L217,1039Z" fill="#bb934b" stroke="#bb934b" stroke-width="1.51"/><path d="M83,1170L214,1182L217,1039Z" fill="#a58947" stroke="#a58947" stroke-width="1.51"/><path d="M44,1004L83,1170L217,1039Z" fill="#ac8a46" stroke="#ac8a46" stroke-width="1.51"/><path d="M200,-46L72,-76L219,41Z" fill="#e75335" stroke="#e75335" stroke-width="1.51"/><path d="M72,-76L16,95L219,41Z" fill="#e85436" stroke="#e85436" stroke-width="1.51"/><path d="M16,95L50,135L219,41Z" fill="#ec613c" stroke="#ec613c" stroke-width="1.51"/><path d="M50,135L188,192L219,41Z" fill="#f16f42" stroke="#f16f42" stroke-width="1.51"/><path d="M189,-151L72,-76L200,-46Z" fill="#e04530" stroke="#e04530" stroke-width="1.51"/><path d="M148,534L41,681L182,682Z" fill="#f0a968" stroke="#f0a968" stroke-width="1.51"/><path d="M57,457L148,534L179,412Z" fill="#f9a66c" stroke="#f9a66c" stroke-width="1.51"/><path d="M28,818L78,884L157,739Z" fill="#d59c50" stroke="#d59c50" stroke-width="1.51"/><path d="M50,135L65,297L188,192Z" fill="#f17c47" stroke="#f17c47" stroke-width="1.51"/><path d="M83,-204L72,-76L189,-151Z" fill="#d43b2d" stroke="#d43b2d" stroke-width="1.51"/><path d="M17,565L41,681L148,534Z" fill="#f2a56b" stroke="#f2a56b" stroke-width="1.51"/><path d="M83,1170L18,1287L175,1293Z" fill="#937039" stroke="#937039" stroke-width="1.51"/><path d="M175,332L65,297L179,412Z" fill="#f6985b" stroke="#f6985b" stroke-width="1.51"/><path d="M65,297L57,457L179,412Z" fill="#f59b5e" stroke="#f59b5e" stroke-width="1.51"/><path d="M41,681L157,739L182,682Z" fill="#e7a65d" stroke="#e7a65d" stroke-width="1.51"/><path d="M41,681L28,818L157,739Z" fill="#de9f55" stroke="#de9f55" stroke-width="1.51"/><path d="M57,457L17,565L148,534Z" fill="#f8a670" stroke="#f8a670" stroke-width="1.51"/><path d="M-88,1241L-217,1242L18,1287Z" fill="#856133" stroke="#856133" stroke-width="1.51"/><path d="M17,565L-26,629L41,681Z" fill="#eb9d62" stroke="#eb9d62" stroke-width="1.51"/><path d="M50,135L-43,210L65,297Z" fill="#ed7543" stroke="#ed7543" stroke-width="1.51"/><path d="M-43,210L-30,264L65,297Z" fill="#ed7a46" stroke="#ed7a46" stroke-width="1.51"/><path d="M-82,443L57,457L65,297Z" fill="#f19359" stroke="#f19359" stroke-width="1.51"/><path d="M-30,264L-82,443L65,297Z" fill="#ed8750" stroke="#ed8750" stroke-width="1.51"/><path d="M-57,38L16,95L72,-76Z" fill="#e14830" stroke="#e14830" stroke-width="1.51"/><path d="M-51,982L44,1004L78,884Z" fill="#bb8c46" stroke="#bb8c46" stroke-width="1.51"/><path d="M-88,1241L18,1287L83,1170Z" fill="#916b35" stroke="#916b35" stroke-width="1.51"/><path d="M-98,1152L-88,1241L83,1170Z" fill="#937038" stroke="#937038" stroke-width="1.51"/><path d="M44,1004L-98,1152L83,1170Z" fill="#a17c3e" stroke="#a17c3e" stroke-width="1.51"/><path d="M-27,-185L72,-76L83,-204Z" fill="#ce2f2a" stroke="#ce2f2a" stroke-width="1.51"/><path d="M-51,982L-98,1152L44,1004Z" fill="#a88041" stroke="#a88041" stroke-width="1.51"/><path d="M-27,-185L-84,-97L72,-76Z" fill="#cf2b27" stroke="#cf2b27" stroke-width="1.51"/><path d="M-84,-97L-57,38L72,-76Z" fill="#d8382a" stroke="#d8382a" stroke-width="1.51"/><path d="M28,818L-88,943L78,884Z" fill="#c69046" stroke="#c69046" stroke-width="1.51"/><path d="M-88,943L-51,982L78,884Z" fill="#bb8a44" stroke="#bb8a44" stroke-width="1.51"/><path d="M-94,779L28,818L41,681Z" fill="#d79650" stroke="#d79650" stroke-width="1.51"/><path d="M-82,443L-99,510L17,565Z" fill="#ed9969" stroke="#ed9969" stroke-width="1.51"/><path d="M-82,443L17,565L57,457Z" fill="#f39b67" stroke="#f39b67" stroke-width="1.51"/><path d="M16,95L-43,210L50,135Z" fill="#e9643c" stroke="#e9643c" stroke-width="1.51"/><path d="M-26,629L-94,779L41,681Z" fill="#df9856" stroke="#df9856" stroke-width="1.51"/><path d="M-94,779L-88,943L28,818Z" fill="#c68e47" stroke="#c68e47" stroke-width="1.51"/><path d="M-57,38L-43,210L16,95Z" fill="#e55a38" stroke="#e55a38" stroke-width="1.51"/><path d="M-99,510L-26,629L17,565Z" fill="#ed9c6a" stroke="#ed9c6a" stroke-width="1.51"/><path d="M-158,78L-160,163L-57,38Z" fill="#da4e36" stroke="#da4e36" stroke-width="1.51"/><path d="M-164,1018L-98,1152L-51,982Z" fill="#a07a40" stroke="#a07a40" stroke-width="1.51"/><path d="M-57,38L-160,163L-43,210Z" fill="#e05b3a" stroke="#e05b3a" stroke-width="1.51"/><path d="M-177,402L-82,443L-30,264Z" fill="#e58754" stroke="#e58754" stroke-width="1.51"/><path d="M-220,293L-177,402L-30,264Z" fill="#df7c4e" stroke="#df7c4e" stroke-width="1.51"/><path d="M-174,686L-94,779L-26,629Z" fill="#d79356" stroke="#d79356" stroke-width="1.51"/><path d="M-99,510L-174,686L-26,629Z" fill="#e29763" stroke="#e29763" stroke-width="1.51"/><path d="M-94,779L-192,888L-88,943Z" fill="#bb8846" stroke="#bb8846" stroke-width="1.51"/><path d="M-192,-170L-84,-97L-27,-185Z" fill="#c12027" stroke="#c12027" stroke-width="1.51"/><path d="M-43,210L-220,293L-30,264Z" fill="#e27446" stroke="#e27446" stroke-width="1.51"/><path d="M-84,-97L-191,-62L-57,38Z" fill="#cf332b" stroke="#cf332b" stroke-width="1.51"/><path d="M-160,163L-220,293L-43,210Z" fill="#dd6b42" stroke="#dd6b42" stroke-width="1.51"/><path d="M-191,-62L-158,78L-57,38Z" fill="#d23e30" stroke="#d23e30" stroke-width="1.51"/><path d="M-88,943L-164,1018L-51,982Z" fill="#ab8143" stroke="#ab8143" stroke-width="1.51"/><path d="M-189,501L-174,686L-99,510Z" fill="#e1946a" stroke="#e1946a" stroke-width="1.51"/><path d="M-164,1018L-164,1147L-98,1152Z" fill="#93723d" stroke="#93723d" stroke-width="1.51"/><path d="M-98,1152L-164,1147L-88,1241Z" fill="#8b6b38" stroke="#8b6b38" stroke-width="1.51"/><path d="M-192,-170L-191,-62L-84,-97Z" fill="#c22127" stroke="#c22127" stroke-width="1.51"/><path d="M-189,501L-99,510L-82,443Z" fill="#e59265" stroke="#e59265" stroke-width="1.51"/><path d="M-177,402L-189,501L-82,443Z" fill="#e28d60" stroke="#e28d60" stroke-width="1.51"/><path d="M-164,1147L-217,1242L-88,1241Z" fill="#846436" stroke="#846436" stroke-width="1.51"/><path d="M-174,686L-213,753L-94,779Z" fill="#ca8d51" stroke="#ca8d51" stroke-width="1.51"/><path d="M-213,753L-192,888L-94,779Z" fill="#c0884b" stroke="#c0884b" stroke-width="1.51"/><path d="M-192,888L-164,1018L-88,943Z" fill="#ab8044" stroke="#ab8044" stroke-width="1.51"/><path d="M-217,1242L-164,1147L-164,1018Z" fill="#8a6d3b" stroke="#8a6d3b" stroke-width="1.51"/><path d="M-220,293L-160,163L-158,78Z" fill="#d75f3e" stroke="#d75f3e" stroke-width="1.51"/><path d="M-191,-62L-220,293L-158,78Z" fill="#d34d37" stroke="#d34d37" stroke-width="1.51"/><path d="M-189,501L-213,753L-174,686Z" fill="#d38f5d" stroke="#d38f5d" stroke-width="1.51"/><path d="M-192,888L-217,1242L-164,1018Z" fill="#977540" stroke="#977540" stroke-width="1.51"/><path d="M-220,293L-189,501L-177,402Z" fill="#db8558" stroke="#db8558" stroke-width="1.51"/><path d="M-213,753L-217,1242L-192,888Z" fill="#a37b43" stroke="#a37b43" stroke-width="1.51"/><path d="M-220,293L-213,753L-189,501Z" fill="#dd9069" stroke="#dd9069" stroke-width="1.51"/><path d="M-192,-170L-220,293L-191,-62Z" fill="#cc3a2f" stroke="#cc3a2f" stroke-width="1.51"/><path d="M-220,293L-217,1242L-213,753Z" fill="#c1884f" stroke="#c1884f" stroke-width="1.51"/></svg>